<?xml version="1.0" encoding="UTF-8" standalone="no"?>
<!DOCTYPE svg PUBLIC "-//W3C//DTD SVG 1.1//EN"
 "http://www.w3.org/Graphics/SVG/1.1/DTD/svg11.dtd">
<!-- Generated by graphviz version 2.40.1 (20161225.0304)
 -->
<!-- Title: G Pages: 1 -->
<svg width="520pt" height="672pt"
 viewBox="0.00 0.00 520.00 672.00" xmlns="http://www.w3.org/2000/svg" xmlns:xlink="http://www.w3.org/1999/xlink">
<g id="graph0" class="graph" transform="scale(1 1) rotate(0) translate(4 668)">
<title>G</title>
<polygon fill="#ffffff" stroke="transparent" points="-4,4 -4,-668 516,-668 516,4 -4,4"/>
<g id="clust1" class="cluster">
<title>cluster_Global</title>
<path fill="none" stroke="#c0c0c0" d="M20,-8C20,-8 492,-8 492,-8 498,-8 504,-14 504,-20 504,-20 504,-644 504,-644 504,-650 498,-656 492,-656 492,-656 20,-656 20,-656 14,-656 8,-650 8,-644 8,-644 8,-20 8,-20 8,-14 14,-8 20,-8"/>
<text text-anchor="middle" x="256" y="-643.2" font-family="Times,serif" font-size="11.00" fill="#c0c0c0">Global</text>
</g>
<g id="clust2" class="cluster">
<title>cluster_\GSC</title>
<path fill="none" stroke="#c0c0c0" d="M28,-16C28,-16 484,-16 484,-16 490,-16 496,-22 496,-28 496,-28 496,-616 496,-616 496,-622 490,-628 484,-628 484,-628 28,-628 28,-628 22,-628 16,-622 16,-616 16,-616 16,-28 16,-28 16,-22 22,-16 28,-16"/>
<text text-anchor="middle" x="256" y="-615.2" font-family="Times,serif" font-size="11.00" fill="#c0c0c0">GSC</text>
</g>
<!-- \\GSC\\RSSPresenter -->
<g id="node1" class="node">
<title>\\GSC\\RSSPresenter</title>
<polygon fill="none" stroke="#000000" points="474.5,-384 376.5,-384 376.5,-348 474.5,-348 474.5,-384"/>
<text text-anchor="middle" x="425.5" y="-363.2" font-family="Courier,monospace" font-size="11.00" fill="#000000">RSSPresenter</text>
</g>
<!-- \\GSC\\APresenter -->
<g id="node7" class="node">
<title>\\GSC\\APresenter</title>
<polygon fill="none" stroke="#000000" points="277.5,-438 193.5,-438 193.5,-402 277.5,-402 277.5,-438"/>
<text text-anchor="start" x="201.5" y="-423.2" font-family="Courier,monospace" font-size="11.00" fill="#000000">«abstract»</text>
<text text-anchor="start" x="201.5" y="-411.2" font-family="Courier,monospace" font-size="11.00" fill="#000000">APresenter</text>
</g>
<!-- \\GSC\\RSSPresenter&#45;&gt;\\GSC\\APresenter -->
<g id="edge1" class="edge">
<title>\\GSC\\RSSPresenter&#45;&gt;\\GSC\\APresenter</title>
<path fill="none" stroke="#000000" d="M376.0757,-380.0469C348.852,-387.7842 315.0842,-397.3813 287.4679,-405.2302"/>
<polygon fill="none" stroke="#000000" points="286.2575,-401.9355 277.5953,-408.0361 288.1712,-408.6688 286.2575,-401.9355"/>
</g>
<!-- \\GSC\\ApiPresenter -->
<g id="node2" class="node">
<title>\\GSC\\ApiPresenter</title>
<polygon fill="none" stroke="#000000" points="474.5,-276 376.5,-276 376.5,-240 474.5,-240 474.5,-276"/>
<text text-anchor="middle" x="425.5" y="-255.2" font-family="Courier,monospace" font-size="11.00" fill="#000000">ApiPresenter</text>
</g>
<!-- \\GSC\\ApiPresenter&#45;&gt;\\GSC\\APresenter -->
<g id="edge2" class="edge">
<title>\\GSC\\ApiPresenter&#45;&gt;\\GSC\\APresenter</title>
<path fill="none" stroke="#000000" d="M377.972,-276.0633C372.7494,-278.7626 367.6475,-281.7457 363,-285 319.0157,-315.7987 278.294,-363.6672 255.2083,-393.3564"/>
<polygon fill="none" stroke="#000000" points="252.2078,-391.5175 248.9011,-401.5831 257.7631,-395.7765 252.2078,-391.5175"/>
</g>
<!-- \\GSC\\LoginPresenter -->
<g id="node3" class="node">
<title>\\GSC\\LoginPresenter</title>
<polygon fill="none" stroke="#000000" points="481,-168 370,-168 370,-132 481,-132 481,-168"/>
<text text-anchor="middle" x="425.5" y="-147.2" font-family="Courier,monospace" font-size="11.00" fill="#000000">LoginPresenter</text>
</g>
<!-- \\GSC\\LoginPresenter&#45;&gt;\\GSC\\APresenter -->
<g id="edge3" class="edge">
<title>\\GSC\\LoginPresenter&#45;&gt;\\GSC\\APresenter</title>
<path fill="none" stroke="#000000" d="M374.8152,-168.1717C370.5719,-170.7727 366.5535,-173.7049 363,-177 296.6299,-238.5441 258.5486,-342.5757 243.3221,-392.1357"/>
<polygon fill="none" stroke="#000000" points="239.929,-391.266 240.4178,-401.8496 246.6357,-393.2712 239.929,-391.266"/>
</g>
<!-- \\GSC\\LogoutPresenter -->
<g id="node4" class="node">
<title>\\GSC\\LogoutPresenter</title>
<polygon fill="none" stroke="#000000" points="484.5,-600 366.5,-600 366.5,-564 484.5,-564 484.5,-600"/>
<text text-anchor="middle" x="425.5" y="-579.2" font-family="Courier,monospace" font-size="11.00" fill="#000000">LogoutPresenter</text>
</g>
<!-- \\GSC\\LogoutPresenter&#45;&gt;\\GSC\\APresenter -->
<g id="edge4" class="edge">
<title>\\GSC\\LogoutPresenter&#45;&gt;\\GSC\\APresenter</title>
<path fill="none" stroke="#000000" d="M377.972,-563.9367C372.7494,-561.2374 367.6475,-558.2543 363,-555 319.0157,-524.2013 278.294,-476.3328 255.2083,-446.6436"/>
<polygon fill="none" stroke="#000000" points="257.7631,-444.2235 248.9011,-438.4169 252.2078,-448.4825 257.7631,-444.2235"/>
</g>
<!-- \\GSC\\StringFilters -->
<g id="node5" class="node">
<title>\\GSC\\StringFilters</title>
<polygon fill="none" stroke="#000000" points="477.5,-60 373.5,-60 373.5,-24 477.5,-24 477.5,-60"/>
<text text-anchor="middle" x="425.5" y="-39.2" font-family="Courier,monospace" font-size="11.00" fill="#000000">StringFilters</text>
</g>
<!-- \\GSC\\IStringFilters -->
<g id="node13" class="node">
<title>\\GSC\\IStringFilters</title>
<polygon fill="none" stroke="#000000" points="291,-60 180,-60 180,-24 291,-24 291,-60"/>
<text text-anchor="middle" x="235.5" y="-39.2" font-family="Courier,monospace" font-size="11.00" fill="#000000">IStringFilters</text>
</g>
<!-- \\GSC\\StringFilters&#45;&gt;\\GSC\\IStringFilters -->
<g id="edge5" class="edge">
<title>\\GSC\\StringFilters&#45;&gt;\\GSC\\IStringFilters</title>
<path fill="none" stroke="#000000" stroke-dasharray="1,5" d="M373.3304,-42C351.1286,-42 324.9797,-42 301.4586,-42"/>
<polygon fill="none" stroke="#000000" points="301.2105,-38.5001 291.2105,-42 301.2104,-45.5001 301.2105,-38.5001"/>
</g>
<!-- \\GSC\\CiTester -->
<g id="node6" class="node">
<title>\\GSC\\CiTester</title>
<polygon fill="none" stroke="#000000" points="461,-330 390,-330 390,-294 461,-294 461,-330"/>
<text text-anchor="middle" x="425.5" y="-309.2" font-family="Courier,monospace" font-size="11.00" fill="#000000">CiTester</text>
</g>
<!-- \\GSC\\IPresenter -->
<g id="node14" class="node">
<title>\\GSC\\IPresenter</title>
<polygon fill="none" stroke="#000000" points="108,-438 24,-438 24,-402 108,-402 108,-438"/>
<text text-anchor="middle" x="66" y="-417.2" font-family="Courier,monospace" font-size="11.00" fill="#000000">IPresenter</text>
</g>
<!-- \\GSC\\APresenter&#45;&gt;\\GSC\\IPresenter -->
<g id="edge6" class="edge">
<title>\\GSC\\APresenter&#45;&gt;\\GSC\\IPresenter</title>
<path fill="none" stroke="#000000" stroke-dasharray="1,5" d="M193.1652,-420C170.4285,-420 142.2041,-420 118.1259,-420"/>
<polygon fill="none" stroke="#000000" points="118.0886,-416.5001 108.0886,-420 118.0885,-423.5001 118.0886,-416.5001"/>
</g>
<!-- \\GSC\\AdminPresenter -->
<g id="node8" class="node">
<title>\\GSC\\AdminPresenter</title>
<polygon fill="none" stroke="#000000" points="481,-546 370,-546 370,-510 481,-510 481,-546"/>
<text text-anchor="middle" x="425.5" y="-525.2" font-family="Courier,monospace" font-size="11.00" fill="#000000">AdminPresenter</text>
</g>
<!-- \\GSC\\AdminPresenter&#45;&gt;\\GSC\\APresenter -->
<g id="edge7" class="edge">
<title>\\GSC\\AdminPresenter&#45;&gt;\\GSC\\APresenter</title>
<path fill="none" stroke="#000000" d="M381.3754,-509.9813C375.1313,-507.1309 368.85,-504.0969 363,-501 330.4495,-483.7683 295.2408,-461.0654 270.0869,-444.0803"/>
<polygon fill="none" stroke="#000000" points="271.8672,-441.0583 261.6299,-438.3293 267.9309,-446.8468 271.8672,-441.0583"/>
</g>
<!-- \\GSC\\Doctor -->
<g id="node9" class="node">
<title>\\GSC\\Doctor</title>
<polygon fill="none" stroke="#000000" points="454,-222 397,-222 397,-186 454,-186 454,-222"/>
<text text-anchor="middle" x="425.5" y="-201.2" font-family="Courier,monospace" font-size="11.00" fill="#000000">Doctor</text>
</g>
<!-- \\GSC\\AndroidPresenter -->
<g id="node10" class="node">
<title>\\GSC\\AndroidPresenter</title>
<polygon fill="none" stroke="#000000" points="488,-492 363,-492 363,-456 488,-456 488,-492"/>
<text text-anchor="middle" x="425.5" y="-471.2" font-family="Courier,monospace" font-size="11.00" fill="#000000">AndroidPresenter</text>
</g>
<!-- \\GSC\\AndroidPresenter&#45;&gt;\\GSC\\APresenter -->
<g id="edge8" class="edge">
<title>\\GSC\\AndroidPresenter&#45;&gt;\\GSC\\APresenter</title>
<path fill="none" stroke="#000000" d="M362.7603,-456.1687C338.2641,-449.2066 310.5206,-441.3216 287.2037,-434.6947"/>
<polygon fill="none" stroke="#000000" points="288.0801,-431.3053 277.5042,-431.938 286.1664,-438.0386 288.0801,-431.3053"/>
</g>
<!-- \\GSC\\UnitTester -->
<g id="node11" class="node">
<title>\\GSC\\UnitTester</title>
<polygon fill="none" stroke="#000000" points="467.5,-114 383.5,-114 383.5,-78 467.5,-78 467.5,-114"/>
<text text-anchor="middle" x="425.5" y="-93.2" font-family="Courier,monospace" font-size="11.00" fill="#000000">UnitTester</text>
</g>
<!-- \\GSC\\CliPresenter -->
<g id="node12" class="node">
<title>\\GSC\\CliPresenter</title>
<polygon fill="none" stroke="#000000" points="474.5,-438 376.5,-438 376.5,-402 474.5,-402 474.5,-438"/>
<text text-anchor="middle" x="425.5" y="-417.2" font-family="Courier,monospace" font-size="11.00" fill="#000000">CliPresenter</text>
</g>
<!-- \\GSC\\CliPresenter&#45;&gt;\\GSC\\APresenter -->
<g id="edge9" class="edge">
<title>\\GSC\\CliPresenter&#45;&gt;\\GSC\\APresenter</title>
<path fill="none" stroke="#000000" d="M376.0757,-420C348.9714,-420 315.3803,-420 287.8316,-420"/>
<polygon fill="none" stroke="#000000" points="287.5954,-416.5001 277.5953,-420 287.5953,-423.5001 287.5954,-416.5001"/>
</g>
</g>
</svg>
