<?xml version="1.0" encoding="UTF-8" standalone="no"?>
<!DOCTYPE svg PUBLIC "-//W3C//DTD SVG 1.1//EN"
 "http://www.w3.org/Graphics/SVG/1.1/DTD/svg11.dtd">
<!-- Generated by graphviz version 2.40.1 (20161225.0304)
 -->
<!-- Title: G Pages: 1 -->
<svg width="520pt" height="618pt"
 viewBox="0.00 0.00 520.00 618.00" xmlns="http://www.w3.org/2000/svg" xmlns:xlink="http://www.w3.org/1999/xlink">
<g id="graph0" class="graph" transform="scale(1 1) rotate(0) translate(4 614)">
<title>G</title>
<polygon fill="#ffffff" stroke="transparent" points="-4,4 -4,-614 516,-614 516,4 -4,4"/>
<g id="clust1" class="cluster">
<title>cluster_Global</title>
<path fill="none" stroke="#c0c0c0" d="M20,-8C20,-8 492,-8 492,-8 498,-8 504,-14 504,-20 504,-20 504,-590 504,-590 504,-596 498,-602 492,-602 492,-602 20,-602 20,-602 14,-602 8,-596 8,-590 8,-590 8,-20 8,-20 8,-14 14,-8 20,-8"/>
<text text-anchor="middle" x="256" y="-589.2" font-family="Times,serif" font-size="11.00" fill="#c0c0c0">Global</text>
</g>
<g id="clust2" class="cluster">
<title>cluster_\GSC</title>
<path fill="none" stroke="#c0c0c0" d="M28,-16C28,-16 484,-16 484,-16 490,-16 496,-22 496,-28 496,-28 496,-562 496,-562 496,-568 490,-574 484,-574 484,-574 28,-574 28,-574 22,-574 16,-568 16,-562 16,-562 16,-28 16,-28 16,-22 22,-16 28,-16"/>
<text text-anchor="middle" x="256" y="-561.2" font-family="Times,serif" font-size="11.00" fill="#c0c0c0">GSC</text>
</g>
<!-- \\GSC\\RSSPresenter -->
<g id="node1" class="node">
<title>\\GSC\\RSSPresenter</title>
<polygon fill="none" stroke="#000000" points="474.5,-384 376.5,-384 376.5,-348 474.5,-348 474.5,-384"/>
<text text-anchor="middle" x="425.5" y="-363.2" font-family="Courier,monospace" font-size="11.00" fill="#000000">RSSPresenter</text>
</g>
<!-- \\GSC\\APresenter -->
<g id="node7" class="node">
<title>\\GSC\\APresenter</title>
<polygon fill="none" stroke="#000000" points="277.5,-384 193.5,-384 193.5,-348 277.5,-348 277.5,-384"/>
<text text-anchor="start" x="201.5" y="-369.2" font-family="Courier,monospace" font-size="11.00" fill="#000000">«abstract»</text>
<text text-anchor="start" x="201.5" y="-357.2" font-family="Courier,monospace" font-size="11.00" fill="#000000">APresenter</text>
</g>
<!-- \\GSC\\RSSPresenter&#45;&gt;\\GSC\\APresenter -->
<g id="edge1" class="edge">
<title>\\GSC\\RSSPresenter&#45;&gt;\\GSC\\APresenter</title>
<path fill="none" stroke="#000000" d="M376.0757,-366C348.9714,-366 315.3803,-366 287.8316,-366"/>
<polygon fill="none" stroke="#000000" points="287.5954,-362.5001 277.5953,-366 287.5953,-369.5001 287.5954,-362.5001"/>
</g>
<!-- \\GSC\\ApiPresenter -->
<g id="node2" class="node">
<title>\\GSC\\ApiPresenter</title>
<polygon fill="none" stroke="#000000" points="474.5,-330 376.5,-330 376.5,-294 474.5,-294 474.5,-330"/>
<text text-anchor="middle" x="425.5" y="-309.2" font-family="Courier,monospace" font-size="11.00" fill="#000000">ApiPresenter</text>
</g>
<!-- \\GSC\\ApiPresenter&#45;&gt;\\GSC\\APresenter -->
<g id="edge2" class="edge">
<title>\\GSC\\ApiPresenter&#45;&gt;\\GSC\\APresenter</title>
<path fill="none" stroke="#000000" d="M376.0757,-326.0469C348.852,-333.7842 315.0842,-343.3813 287.4679,-351.2302"/>
<polygon fill="none" stroke="#000000" points="286.2575,-347.9355 277.5953,-354.0361 288.1712,-354.6688 286.2575,-347.9355"/>
</g>
<!-- \\GSC\\LoginPresenter -->
<g id="node3" class="node">
<title>\\GSC\\LoginPresenter</title>
<polygon fill="none" stroke="#000000" points="481,-222 370,-222 370,-186 481,-186 481,-222"/>
<text text-anchor="middle" x="425.5" y="-201.2" font-family="Courier,monospace" font-size="11.00" fill="#000000">LoginPresenter</text>
</g>
<!-- \\GSC\\LoginPresenter&#45;&gt;\\GSC\\APresenter -->
<g id="edge3" class="edge">
<title>\\GSC\\LoginPresenter&#45;&gt;\\GSC\\APresenter</title>
<path fill="none" stroke="#000000" d="M377.972,-222.0633C372.7494,-224.7626 367.6475,-227.7457 363,-231 319.0157,-261.7987 278.294,-309.6672 255.2083,-339.3564"/>
<polygon fill="none" stroke="#000000" points="252.2078,-337.5175 248.9011,-347.5831 257.7631,-341.7765 252.2078,-337.5175"/>
</g>
<!-- \\GSC\\LogoutPresenter -->
<g id="node4" class="node">
<title>\\GSC\\LogoutPresenter</title>
<polygon fill="none" stroke="#000000" points="484.5,-168 366.5,-168 366.5,-132 484.5,-132 484.5,-168"/>
<text text-anchor="middle" x="425.5" y="-147.2" font-family="Courier,monospace" font-size="11.00" fill="#000000">LogoutPresenter</text>
</g>
<!-- \\GSC\\LogoutPresenter&#45;&gt;\\GSC\\APresenter -->
<g id="edge4" class="edge">
<title>\\GSC\\LogoutPresenter&#45;&gt;\\GSC\\APresenter</title>
<path fill="none" stroke="#000000" d="M376.1391,-168.0494C371.4756,-170.7025 367.0026,-173.6793 363,-177 307.8422,-222.7609 266.9253,-298.3411 247.6985,-338.6646"/>
<polygon fill="none" stroke="#000000" points="244.4532,-337.342 243.3891,-347.8833 250.7946,-340.3064 244.4532,-337.342"/>
</g>
<!-- \\GSC\\StringFilters -->
<g id="node5" class="node">
<title>\\GSC\\StringFilters</title>
<polygon fill="none" stroke="#000000" points="477.5,-60 373.5,-60 373.5,-24 477.5,-24 477.5,-60"/>
<text text-anchor="middle" x="425.5" y="-39.2" font-family="Courier,monospace" font-size="11.00" fill="#000000">StringFilters</text>
</g>
<!-- \\GSC\\IStringFilters -->
<g id="node12" class="node">
<title>\\GSC\\IStringFilters</title>
<polygon fill="none" stroke="#000000" points="291,-60 180,-60 180,-24 291,-24 291,-60"/>
<text text-anchor="middle" x="235.5" y="-39.2" font-family="Courier,monospace" font-size="11.00" fill="#000000">IStringFilters</text>
</g>
<!-- \\GSC\\StringFilters&#45;&gt;\\GSC\\IStringFilters -->
<g id="edge5" class="edge">
<title>\\GSC\\StringFilters&#45;&gt;\\GSC\\IStringFilters</title>
<path fill="none" stroke="#000000" stroke-dasharray="1,5" d="M373.3304,-42C351.1286,-42 324.9797,-42 301.4586,-42"/>
<polygon fill="none" stroke="#000000" points="301.2105,-38.5001 291.2105,-42 301.2104,-45.5001 301.2105,-38.5001"/>
</g>
<!-- \\GSC\\CiTester -->
<g id="node6" class="node">
<title>\\GSC\\CiTester</title>
<polygon fill="none" stroke="#000000" points="461,-276 390,-276 390,-240 461,-240 461,-276"/>
<text text-anchor="middle" x="425.5" y="-255.2" font-family="Courier,monospace" font-size="11.00" fill="#000000">CiTester</text>
</g>
<!-- \\GSC\\IPresenter -->
<g id="node13" class="node">
<title>\\GSC\\IPresenter</title>
<polygon fill="none" stroke="#000000" points="108,-384 24,-384 24,-348 108,-348 108,-384"/>
<text text-anchor="middle" x="66" y="-363.2" font-family="Courier,monospace" font-size="11.00" fill="#000000">IPresenter</text>
</g>
<!-- \\GSC\\APresenter&#45;&gt;\\GSC\\IPresenter -->
<g id="edge6" class="edge">
<title>\\GSC\\APresenter&#45;&gt;\\GSC\\IPresenter</title>
<path fill="none" stroke="#000000" stroke-dasharray="1,5" d="M193.1652,-366C170.4285,-366 142.2041,-366 118.1259,-366"/>
<polygon fill="none" stroke="#000000" points="118.0886,-362.5001 108.0886,-366 118.0885,-369.5001 118.0886,-362.5001"/>
</g>
<!-- \\GSC\\AdminPresenter -->
<g id="node8" class="node">
<title>\\GSC\\AdminPresenter</title>
<polygon fill="none" stroke="#000000" points="481,-546 370,-546 370,-510 481,-510 481,-546"/>
<text text-anchor="middle" x="425.5" y="-525.2" font-family="Courier,monospace" font-size="11.00" fill="#000000">AdminPresenter</text>
</g>
<!-- \\GSC\\AdminPresenter&#45;&gt;\\GSC\\APresenter -->
<g id="edge7" class="edge">
<title>\\GSC\\AdminPresenter&#45;&gt;\\GSC\\APresenter</title>
<path fill="none" stroke="#000000" d="M377.972,-509.9367C372.7494,-507.2374 367.6475,-504.2543 363,-501 319.0157,-470.2013 278.294,-422.3328 255.2083,-392.6436"/>
<polygon fill="none" stroke="#000000" points="257.7631,-390.2235 248.9011,-384.4169 252.2078,-394.4825 257.7631,-390.2235"/>
</g>
<!-- \\GSC\\AndroidPresenter -->
<g id="node9" class="node">
<title>\\GSC\\AndroidPresenter</title>
<polygon fill="none" stroke="#000000" points="488,-492 363,-492 363,-456 488,-456 488,-492"/>
<text text-anchor="middle" x="425.5" y="-471.2" font-family="Courier,monospace" font-size="11.00" fill="#000000">AndroidPresenter</text>
</g>
<!-- \\GSC\\AndroidPresenter&#45;&gt;\\GSC\\APresenter -->
<g id="edge8" class="edge">
<title>\\GSC\\AndroidPresenter&#45;&gt;\\GSC\\APresenter</title>
<path fill="none" stroke="#000000" d="M381.3754,-455.9813C375.1313,-453.1309 368.85,-450.0969 363,-447 330.4495,-429.7683 295.2408,-407.0654 270.0869,-390.0803"/>
<polygon fill="none" stroke="#000000" points="271.8672,-387.0583 261.6299,-384.3293 267.9309,-392.8468 271.8672,-387.0583"/>
</g>
<!-- \\GSC\\UnitTester -->
<g id="node10" class="node">
<title>\\GSC\\UnitTester</title>
<polygon fill="none" stroke="#000000" points="467.5,-114 383.5,-114 383.5,-78 467.5,-78 467.5,-114"/>
<text text-anchor="middle" x="425.5" y="-93.2" font-family="Courier,monospace" font-size="11.00" fill="#000000">UnitTester</text>
</g>
<!-- \\GSC\\CliPresenter -->
<g id="node11" class="node">
<title>\\GSC\\CliPresenter</title>
<polygon fill="none" stroke="#000000" points="474.5,-438 376.5,-438 376.5,-402 474.5,-402 474.5,-438"/>
<text text-anchor="middle" x="425.5" y="-417.2" font-family="Courier,monospace" font-size="11.00" fill="#000000">CliPresenter</text>
</g>
<!-- \\GSC\\CliPresenter&#45;&gt;\\GSC\\APresenter -->
<g id="edge9" class="edge">
<title>\\GSC\\CliPresenter&#45;&gt;\\GSC\\APresenter</title>
<path fill="none" stroke="#000000" d="M376.0757,-405.9531C348.852,-398.2158 315.0842,-388.6187 287.4679,-380.7698"/>
<polygon fill="none" stroke="#000000" points="288.1712,-377.3312 277.5953,-377.9639 286.2575,-384.0645 288.1712,-377.3312"/>
</g>
</g>
</svg>
