<?xml version="1.0" encoding="UTF-8" standalone="no"?>
<!DOCTYPE svg PUBLIC "-//W3C//DTD SVG 1.1//EN"
 "http://www.w3.org/Graphics/SVG/1.1/DTD/svg11.dtd">
<!-- Generated by graphviz version 2.40.1 (20161225.0304)
 -->
<!-- Title: G Pages: 1 -->
<svg width="520pt" height="618pt"
 viewBox="0.00 0.00 520.00 618.00" xmlns="http://www.w3.org/2000/svg" xmlns:xlink="http://www.w3.org/1999/xlink">
<g id="graph0" class="graph" transform="scale(1 1) rotate(0) translate(4 614)">
<title>G</title>
<polygon fill="#ffffff" stroke="transparent" points="-4,4 -4,-614 516,-614 516,4 -4,4"/>
<g id="clust1" class="cluster">
<title>cluster_Global</title>
<path fill="none" stroke="#c0c0c0" d="M20,-8C20,-8 492,-8 492,-8 498,-8 504,-14 504,-20 504,-20 504,-590 504,-590 504,-596 498,-602 492,-602 492,-602 20,-602 20,-602 14,-602 8,-596 8,-590 8,-590 8,-20 8,-20 8,-14 14,-8 20,-8"/>
<text text-anchor="middle" x="256" y="-589.2" font-family="Times,serif" font-size="11.00" fill="#c0c0c0">Global</text>
</g>
<g id="clust2" class="cluster">
<title>cluster_\GSC</title>
<path fill="none" stroke="#c0c0c0" d="M28,-16C28,-16 484,-16 484,-16 490,-16 496,-22 496,-28 496,-28 496,-562 496,-562 496,-568 490,-574 484,-574 484,-574 28,-574 28,-574 22,-574 16,-568 16,-562 16,-562 16,-28 16,-28 16,-22 22,-16 28,-16"/>
<text text-anchor="middle" x="256" y="-561.2" font-family="Times,serif" font-size="11.00" fill="#c0c0c0">GSC</text>
</g>
<!-- \\GSC\\AndroidPresenter -->
<g id="node1" class="node">
<title>\\GSC\\AndroidPresenter</title>
<polygon fill="none" stroke="#000000" points="488,-546 363,-546 363,-510 488,-510 488,-546"/>
<text text-anchor="middle" x="425.5" y="-525.2" font-family="Courier,monospace" font-size="11.00" fill="#000000">AndroidPresenter</text>
</g>
<!-- \\GSC\\APresenter -->
<g id="node2" class="node">
<title>\\GSC\\APresenter</title>
<polygon fill="none" stroke="#000000" points="277.5,-384 193.5,-384 193.5,-348 277.5,-348 277.5,-384"/>
<text text-anchor="start" x="201.5" y="-369.2" font-family="Courier,monospace" font-size="11.00" fill="#000000">«abstract»</text>
<text text-anchor="start" x="201.5" y="-357.2" font-family="Courier,monospace" font-size="11.00" fill="#000000">APresenter</text>
</g>
<!-- \\GSC\\AndroidPresenter&#45;&gt;\\GSC\\APresenter -->
<g id="edge1" class="edge">
<title>\\GSC\\AndroidPresenter&#45;&gt;\\GSC\\APresenter</title>
<path fill="none" stroke="#000000" d="M377.972,-509.9367C372.7494,-507.2374 367.6475,-504.2543 363,-501 319.0157,-470.2013 278.294,-422.3328 255.2083,-392.6436"/>
<polygon fill="none" stroke="#000000" points="257.7631,-390.2235 248.9011,-384.4169 252.2078,-394.4825 257.7631,-390.2235"/>
</g>
<!-- \\GSC\\IPresenter -->
<g id="node12" class="node">
<title>\\GSC\\IPresenter</title>
<polygon fill="none" stroke="#000000" points="108,-384 24,-384 24,-348 108,-348 108,-384"/>
<text text-anchor="middle" x="66" y="-363.2" font-family="Courier,monospace" font-size="11.00" fill="#000000">IPresenter</text>
</g>
<!-- \\GSC\\APresenter&#45;&gt;\\GSC\\IPresenter -->
<g id="edge2" class="edge">
<title>\\GSC\\APresenter&#45;&gt;\\GSC\\IPresenter</title>
<path fill="none" stroke="#000000" stroke-dasharray="1,5" d="M193.1652,-366C170.4285,-366 142.2041,-366 118.1259,-366"/>
<polygon fill="none" stroke="#000000" points="118.0886,-362.5001 108.0886,-366 118.0885,-369.5001 118.0886,-362.5001"/>
</g>
<!-- \\GSC\\ApiPresenter -->
<g id="node3" class="node">
<title>\\GSC\\ApiPresenter</title>
<polygon fill="none" stroke="#000000" points="474.5,-492 376.5,-492 376.5,-456 474.5,-456 474.5,-492"/>
<text text-anchor="middle" x="425.5" y="-471.2" font-family="Courier,monospace" font-size="11.00" fill="#000000">ApiPresenter</text>
</g>
<!-- \\GSC\\ApiPresenter&#45;&gt;\\GSC\\APresenter -->
<g id="edge3" class="edge">
<title>\\GSC\\ApiPresenter&#45;&gt;\\GSC\\APresenter</title>
<path fill="none" stroke="#000000" d="M381.3754,-455.9813C375.1313,-453.1309 368.85,-450.0969 363,-447 330.4495,-429.7683 295.2408,-407.0654 270.0869,-390.0803"/>
<polygon fill="none" stroke="#000000" points="271.8672,-387.0583 261.6299,-384.3293 267.9309,-392.8468 271.8672,-387.0583"/>
</g>
<!-- \\GSC\\LoginPresenter -->
<g id="node4" class="node">
<title>\\GSC\\LoginPresenter</title>
<polygon fill="none" stroke="#000000" points="481,-438 370,-438 370,-402 481,-402 481,-438"/>
<text text-anchor="middle" x="425.5" y="-417.2" font-family="Courier,monospace" font-size="11.00" fill="#000000">LoginPresenter</text>
</g>
<!-- \\GSC\\LoginPresenter&#45;&gt;\\GSC\\APresenter -->
<g id="edge4" class="edge">
<title>\\GSC\\LoginPresenter&#45;&gt;\\GSC\\APresenter</title>
<path fill="none" stroke="#000000" d="M369.7775,-404.1631C343.7741,-396.7726 313.0054,-388.0278 287.486,-380.775"/>
<polygon fill="none" stroke="#000000" points="288.2002,-377.3394 277.6243,-377.9722 286.2865,-384.0728 288.2002,-377.3394"/>
</g>
<!-- \\GSC\\AdminPresenter -->
<g id="node5" class="node">
<title>\\GSC\\AdminPresenter</title>
<polygon fill="none" stroke="#000000" points="481,-384 370,-384 370,-348 481,-348 481,-384"/>
<text text-anchor="middle" x="425.5" y="-363.2" font-family="Courier,monospace" font-size="11.00" fill="#000000">AdminPresenter</text>
</g>
<!-- \\GSC\\AdminPresenter&#45;&gt;\\GSC\\APresenter -->
<g id="edge5" class="edge">
<title>\\GSC\\AdminPresenter&#45;&gt;\\GSC\\APresenter</title>
<path fill="none" stroke="#000000" d="M369.7775,-366C343.8891,-366 313.2776,-366 287.825,-366"/>
<polygon fill="none" stroke="#000000" points="287.6244,-362.5001 277.6243,-366 287.6243,-369.5001 287.6244,-362.5001"/>
</g>
<!-- \\GSC\\UnitTester -->
<g id="node6" class="node">
<title>\\GSC\\UnitTester</title>
<polygon fill="none" stroke="#000000" points="467.5,-330 383.5,-330 383.5,-294 467.5,-294 467.5,-330"/>
<text text-anchor="middle" x="425.5" y="-309.2" font-family="Courier,monospace" font-size="11.00" fill="#000000">UnitTester</text>
</g>
<!-- \\GSC\\StringFilters -->
<g id="node7" class="node">
<title>\\GSC\\StringFilters</title>
<polygon fill="none" stroke="#000000" points="477.5,-114 373.5,-114 373.5,-78 477.5,-78 477.5,-114"/>
<text text-anchor="middle" x="425.5" y="-93.2" font-family="Courier,monospace" font-size="11.00" fill="#000000">StringFilters</text>
</g>
<!-- \\GSC\\IStringFilters -->
<g id="node13" class="node">
<title>\\GSC\\IStringFilters</title>
<polygon fill="none" stroke="#000000" points="291,-114 180,-114 180,-78 291,-78 291,-114"/>
<text text-anchor="middle" x="235.5" y="-93.2" font-family="Courier,monospace" font-size="11.00" fill="#000000">IStringFilters</text>
</g>
<!-- \\GSC\\StringFilters&#45;&gt;\\GSC\\IStringFilters -->
<g id="edge6" class="edge">
<title>\\GSC\\StringFilters&#45;&gt;\\GSC\\IStringFilters</title>
<path fill="none" stroke="#000000" stroke-dasharray="1,5" d="M373.3304,-96C351.1286,-96 324.9797,-96 301.4586,-96"/>
<polygon fill="none" stroke="#000000" points="301.2105,-92.5001 291.2105,-96 301.2104,-99.5001 301.2105,-92.5001"/>
</g>
<!-- \\GSC\\RSSPresenter -->
<g id="node8" class="node">
<title>\\GSC\\RSSPresenter</title>
<polygon fill="none" stroke="#000000" points="474.5,-276 376.5,-276 376.5,-240 474.5,-240 474.5,-276"/>
<text text-anchor="middle" x="425.5" y="-255.2" font-family="Courier,monospace" font-size="11.00" fill="#000000">RSSPresenter</text>
</g>
<!-- \\GSC\\RSSPresenter&#45;&gt;\\GSC\\APresenter -->
<g id="edge7" class="edge">
<title>\\GSC\\RSSPresenter&#45;&gt;\\GSC\\APresenter</title>
<path fill="none" stroke="#000000" d="M381.3754,-276.0187C375.1313,-278.8691 368.85,-281.9031 363,-285 330.4495,-302.2317 295.2408,-324.9346 270.0869,-341.9197"/>
<polygon fill="none" stroke="#000000" points="267.9309,-339.1532 261.6299,-347.6707 271.8672,-344.9417 267.9309,-339.1532"/>
</g>
<!-- \\GSC\\LogoutPresenter -->
<g id="node9" class="node">
<title>\\GSC\\LogoutPresenter</title>
<polygon fill="none" stroke="#000000" points="484.5,-222 366.5,-222 366.5,-186 484.5,-186 484.5,-222"/>
<text text-anchor="middle" x="425.5" y="-201.2" font-family="Courier,monospace" font-size="11.00" fill="#000000">LogoutPresenter</text>
</g>
<!-- \\GSC\\LogoutPresenter&#45;&gt;\\GSC\\APresenter -->
<g id="edge8" class="edge">
<title>\\GSC\\LogoutPresenter&#45;&gt;\\GSC\\APresenter</title>
<path fill="none" stroke="#000000" d="M377.972,-222.0633C372.7494,-224.7626 367.6475,-227.7457 363,-231 319.0157,-261.7987 278.294,-309.6672 255.2083,-339.3564"/>
<polygon fill="none" stroke="#000000" points="252.2078,-337.5175 248.9011,-347.5831 257.7631,-341.7765 252.2078,-337.5175"/>
</g>
<!-- \\GSC\\CliPresenter -->
<g id="node10" class="node">
<title>\\GSC\\CliPresenter</title>
<polygon fill="none" stroke="#000000" points="474.5,-168 376.5,-168 376.5,-132 474.5,-132 474.5,-168"/>
<text text-anchor="middle" x="425.5" y="-147.2" font-family="Courier,monospace" font-size="11.00" fill="#000000">CliPresenter</text>
</g>
<!-- \\GSC\\CliPresenter&#45;&gt;\\GSC\\APresenter -->
<g id="edge9" class="edge">
<title>\\GSC\\CliPresenter&#45;&gt;\\GSC\\APresenter</title>
<path fill="none" stroke="#000000" d="M376.4574,-167.869C371.6792,-170.5673 367.0936,-173.6038 363,-177 307.8422,-222.7609 266.9253,-298.3411 247.6985,-338.6646"/>
<polygon fill="none" stroke="#000000" points="244.4532,-337.342 243.3891,-347.8833 250.7946,-340.3064 244.4532,-337.342"/>
</g>
<!-- \\GSC\\CiTester -->
<g id="node11" class="node">
<title>\\GSC\\CiTester</title>
<polygon fill="none" stroke="#000000" points="461,-60 390,-60 390,-24 461,-24 461,-60"/>
<text text-anchor="middle" x="425.5" y="-39.2" font-family="Courier,monospace" font-size="11.00" fill="#000000">CiTester</text>
</g>
</g>
</svg>
